# xmcd
#
# Track frame offsets:
#	150
#	8179
#	20923
#	35343
#	47292
#	61185
#	74478
#	83351
#	96589
#	106976
#	119098
#	128936
#	137810
#
# Disc length: 2137 seconds
#
# Revision: 1
# Processed by: cddbd v1.5.2PL0 Copyright (c) Steve Scherf et al.
# Submitted via: audiograbber 1.83.01
#
DISCID=b208570d
DTITLE=Kally Darm - Slidin Delta Blues
DYEAR=1900
DGENRE=Blues
TTITLE0=Bangbang (Frank Hutchinson)
TTITLE1=Come on in my kitchen (Robert Johnson)
TTITLE2=Then play on (Peter Green)
TTITLE3=I belong to the band (Gary Davis)
TTITLE4=Last fair deal gone down (Robert Johnson)
TTITLE5=Happy Street/West Coast Blues (Blind Blake)
TTITLE6=Key to the highway (Big Bill Broonzy)
TTITLE7=Jesus on the mainline (Fred McDowell)
TTITLE8=Richland woman Blues (John Hurt)
TTITLE9=Joilet Bound (Bukka White)
TTITLE10=Morning Blues (Uncle Dave Macon)
TTITLE11=Police dog Blues (Blind Blake)
TTITLE12=Ezy Rider (Michael Chapman)
EXTD=
EXTT0=
EXTT1=
EXTT2=
EXTT3=
EXTT4=
EXTT5=
EXTT6=
EXTT7=
EXTT8=
EXTT9=
EXTT10=
EXTT11=
EXTT12=
PLAYORDER=
